<svg width="1200" height="630" viewBox="0 0 1200 630" fill="none" xmlns="http://www.w3.org/2000/svg">
  <defs>
    <linearGradient id="bg" x1="0" y1="0" x2="1200" y2="630" gradientUnits="userSpaceOnUse">
      <stop stop-color="#0F172A"/>
      <stop offset="1" stop-color="#111827"/>
    </linearGradient>
    <linearGradient id="accent" x1="260" y1="120" x2="940" y2="510" gradientUnits="userSpaceOnUse">
      <stop stop-color="#38BDF8"/>
      <stop offset="1" stop-color="#34D399"/>
    </linearGradient>
  </defs>
  <rect width="1200" height="630" rx="56" fill="url(#bg)"/>
  <circle cx="960" cy="130" r="140" fill="#1D4ED8" opacity="0.18"/>
  <circle cx="240" cy="520" r="180" fill="#14B8A6" opacity="0.12"/>
  <rect x="110" y="95" width="980" height="440" rx="44" stroke="rgba(255,255,255,0.10)" stroke-width="6"/>
  <path d="M320 170H870M320 220H760M320 270H680" stroke="url(#accent)" stroke-width="18" stroke-linecap="round"/>
  <path d="M420 370C420 314.8 464.8 270 520 270H680C735.2 270 780 314.8 780 370C780 425.2 735.2 470 680 470H520C464.8 470 420 425.2 420 370Z" fill="rgba(56,189,248,0.12)" stroke="url(#accent)" stroke-width="8"/>
  <path d="M530 330H700" stroke="#E0F2FE" stroke-width="20" stroke-linecap="round"/>
  <path d="M530 370H700" stroke="#E0F2FE" stroke-width="20" stroke-linecap="round"/>
  <path d="M530 410H650" stroke="#E0F2FE" stroke-width="20" stroke-linecap="round"/>
  <text x="110" y="585" fill="#E2E8F0" font-size="34" font-family="Arial, Helvetica, sans-serif" font-weight="700">Circuit Weaver</text>
  <text x="110" y="545" fill="#94A3B8" font-size="22" font-family="Arial, Helvetica, sans-serif">Browser-based circuit analyzer • DC • Transient • AC</text>
</svg>